<?xml version="1.0" encoding="utf-8"?>
<!-- Generator: Adobe Illustrator 19.2.1, SVG Export Plug-In . SVG Version: 6.00 Build 0)  -->
<svg version="1.1" xmlns="http://www.w3.org/2000/svg" xmlns:xlink="http://www.w3.org/1999/xlink" x="0px" y="0px"
	 viewBox="0 0 1920 549" style="enable-background:new 0 0 1920 549;" xml:space="preserve">
<style type="text/css">
	.st0{display:none;}
	.st1{fill:#C5111A;}
	.st2{fill:#0280BD;}
	.st3{display:inline;fill:#060606;}
	.st4{display:inline;fill:#C5111A;}
</style>
<g id="Background_xA0_Image_1_">
</g>
<g id="Layer_12_xA0_Image_1_" class="st0">
</g>
<g id="myKhel">
	<path class="st1" d="M1868.8,351.8c-1.5-4.1-2.6-10.5-3.2-19c0.6-3.1,0.9-7.5,0.9-13.3l0.9-284.9h-122v64.2
		c9.2,5.2,13.8,16.8,13.8,34.9v5.5v187.2v5.5c0,15.9-4.6,26.3-13.8,31.2v64.7h134.4v-64.7C1874,359.7,1870.3,356,1868.8,351.8z
		 M1837.9,249.8c0.5,4.8-1.1,10.1-1.6,15.1c-1.3,13.1-8.7,23.8-14.6,34.9c-2.7,5-3,9.9-2.4,15.2c0.4,3.3,1.7,5,4.9,6
		c5.3,1.6,9.4,4.7,13,9.3c3.6,4.7,8.2,9.1,15.9,7.5c6.7-1.4,9.4,2.7,6.4,9c-2.9,6-5.8,11.6-6.4,18.5c-0.3,4.1-2.6,8.2-6.9,10.1
		c-4.2,1.9-6.8,0.5-7.1-4.1c-0.2-3.2-0.1-6.5,0-9.7c0.2-9.6-2.7-13.6-11.7-17.6c-5.5-2.5-10.9-5.4-16.1-8.4c-3.8-2.2-5-0.3-5.6,3
		c-0.1,0.6-0.4,1.2-0.3,1.8c1.9,15.8-4.4,29.4-12.1,42.4c-2.8,4.8-4.5,10.2-7.4,15c-1.6,2.7-0.3,7.1-0.4,10.8
		c-0.1,2.2-0.5,4.4-0.7,6.6c-0.4,4.1-2,5.7-6.4,3.9c-7.4-2.9-14.9-5.3-21.6-9.7c-5.1-3.4-5.1-5.3,0-8.9c1.4-1,3.2-2.3,4.8-2.3
		c9.1-0.1,12.6-6.4,15.9-13.2c4.5-9.3,5-19.6,7.9-29.3c2.8-9.1,3-18.3,2.8-27.6c-0.1-6.5-0.2-13,2.9-19.1c0.8-1.5,0.3-2.7-0.1-4.1
		c-4.4-14.8-7.9-30-5.3-45.3c1.4-7.8-4.3-13.6-2.5-21c-3.5,3.6-7.5,5.1-11.7,3.5c-3.9-1.5-4.2-5.9-4.6-9.3
		c-1.6-12.3,1.7-24.1,3.8-36c0.9-4.9,3.2-8.5,7.6-11c4.8-2.7,9.4-5.7,13.8-8.9c3.1-2.3,5.3-4.7,0.9-8.7c-7.1-6.6-4.8-26.6,3.1-32.2
		c6.2-4.4,19.8,0.1,22.1,7.8c1.6,5.4,2.4,11-1.1,16.4c-4.1,6.4-3.1,9.2,3.9,11.9c6.6,2.5,12.4,6.8,19.4,8.5c1.7,0.4,2.6,1.9,3.5,3.2
		c6.6,9.3,13.5,18.3,19.6,27.9c3.2,5-0.5,9.3-4,12.6c-4.1,4-9.5,6.1-14.4,9C1838.4,237.2,1837.2,242.6,1837.9,249.8z"/>
	<path class="st1" d="M1417.1,352.3c-1.4-4.1-2.4-11.5-3-22.3c0.6-3.1,0.9-6.3,0.9-9.6V209.8c0-28.4-8-48.4-23.9-59.9
		c-15.9-11.5-34.9-17.5-56.9-18.1c-25.4,0-48,6.6-67.9,19.7v-117h-123v64.2c9.8,2.5,14.7,15.9,14.7,40.4v188.1
		c0,10.7-0.6,18.4-1.8,22.9c-1.2,4.6-5.2,8.9-11.9,12.8v64.7h98.5h36h33.5h38h77.1v-64.7C1421.9,360,1418.4,356.4,1417.1,352.3z
		 M1334.3,141.4c0.2-1.4,0.7-2.8,1.4-4.1c1.6-2.9,3.7-3.3,6.1-1c2.3,2.1,3.5,4.8,4.4,7.7c2.1,6.8,2.9,13.8,2.5,20.9
		c-0.1,1.7-0.7,3.2-2,4.2c-1.3,0.9-1.2,1.8-0.9,3.1c0.7,3.1,2.1,6.2,1.2,9.6c-0.2,0.8-0.4,1.5-0.6,2.3c-0.1,0-0.3,0-0.4-0.1
		c-0.8-3.9-1.6-7.8-2.3-11.8c-0.2-0.9-0.2-1.3-1.3-1.6c-2.7-0.8-4.5-2.7-5.6-5.5C1333.9,157.3,1333.1,149.5,1334.3,141.4z
		 M1377.5,358.3c-1.4,1.1-2.9,1.3-4.3-0.1c-1-1.1-1.8-2.3-2.4-3.6c-1.6-3.2-3.9-5.9-6.5-8.2c-0.9-0.8-1.9-1.9-3,0
		c-0.9,1.5-2.1,0.4-2.2-0.7c-0.2-2.2-1.7-1.9-3.1-2c-4.9-0.1-9.2,1.8-13.3,4.1c-3.9,2.2-7.8,4.1-11.7,6.1c-6.9,3.5-13.2,2.3-19-2.5
		c-3-2.5-6-5-8.5-8c-0.3-0.4-0.6-1-1.2-0.8c-2.1,0.6-4.2,1.4-6.2,2c-0.6,0.2-0.5,0.6-0.5,1.1c0.3,3.3,1.1,6.4,3.7,8.6
		c5.2,4.4,8.2,10.1,10.4,16.4c1.9,5.5,4.7,10.6,7.8,15.5c0.5,0.8,0.8,1.4,1.9,0.7c1-0.7,2.2-0.3,3.4-0.4c0.6,0,1.4,0.2,1.8-0.1
		c2.7-2,3.3,0.4,4.1,1.9c1.4,2.6,1.6,5.6,2.1,8.4c0.1,0.4,0,1.2-0.2,1.3c-3,1.1-1,3-0.5,4.3c2.5,7,1.3,13.7-1.9,20.1
		c-0.5,1.1-1.2,2-2.6,2c-1.5-0.1-2.1-1.2-2.4-2.4c-0.5-1.9-1.2-3.8-1.3-5.8c-0.2-3.7-2.3-6-4.8-8.2c-1.8-1.6-4.1-2.7-5.3-5
		c-0.7-1.3-1.8-2.6,0.4-3.7c1.1-0.5-0.1-1.2-0.3-1.6c-2.7-4-5.5-7.9-8.5-11.7c-4.1-5-7.5-10.6-12-15.4c-2.7-2.8-5.4-5.7-8.3-8.3
		c-4-3.5-6-8-6.9-13c-0.2-1-0.3-2.1-0.5-3.1c-0.1-0.8-0.3-1.4-1.3-1.2c-1.6,0.3-1.9-0.7-2.1-2c-0.6-3.7-0.4-7.4-0.2-11
		c0.5-8.8,2.2-17.5,4.3-26.1c0.7-2.9-0.2-6.2,0.7-9.1c0.8-2.5,1-4.9,0.9-7.4c0-1-0.2-1.8-1.2-2.2c-1.7-0.7-1.4-1.9-1-3.3
		c2.3-7.4,5.5-14.6,7.4-22.1c0.7-2.7,1.2-5.3,0.9-8.3c-0.7-5.8-0.4-11.6,4.7-15.7c0.5-0.4,1-0.7,1.5-1.1c0.4-0.3,0.8-0.7,1.3-1.1
		c-1.5-0.6-2.4-1.5-3-3c-0.7-1.9-2.4-3.2-4-4.3c-2-1.4-2.5-3.2-2.5-5.5c0-6.3,1.1-12.4,3.2-18.4c1.7-4.8,2.8-9.8,3.8-14.8
		c0.7-3.5,3.2-5.4,6.4-6.4c1-0.3,2.1-0.4,3-1.2c1.2-1.1,2.3-2.2,0.5-3.7c-0.5-0.5-1.3-1.3-0.6-2c0.7-0.8,1.5-0.2,2.2,0.3
		c1,0.8,1.7,1.9,2.1,3.8c0.7-1.8,0.1-2.7-0.3-3.7c-0.2-0.7-0.9-1.4,0-2c0.8-0.5,1.5,0.1,2.1,0.6c1.5,1.5,2,3.5,2.1,6
		c1.3-1.8,1.6-3.3,1.8-4.9c0.1-0.9,0.4-1.8,1.5-1.8c1.2,0,0.8,1.1,0.8,1.8c0,1.3,0.2,2.6-0.5,4c1-0.2,1.4-1.1,2-1.4
		c0.9-0.5,1.9-1.6,2.8-0.5c0.9,1-0.4,1.8-1.1,2.4c-2.5,2.5-5.2,5-8,7.7c0.8,0.3,1,0.4,1.2,0.4c0.9,0,1.9,0.2,1.9,1.2
		c0,1.1-0.9,1.3-1.9,1.6c-1.8,0.5-3.5,0.4-5.3,0.3c-3-0.1-4.5,1.3-4.6,4.3c-0.2,6.1,0.3,12.3-0.5,18.4c-0.1,0.8-0.3,1.7-0.3,2.5
		c0,0.8,0.1,1.7,1.1,1.6c3.4-0.4,5.7,1.7,8.3,3.3c0.9,0.6,1.8,1.2,2.6,1.8c0.5,0.3,0.9,0.7,1.4,0.3c0.4-0.4,0.3-1-0.1-1.5
		c-0.5-0.7-1-1.3-1.7-1.9c-1.3-1.2-1.8-2.5-0.8-4.1c0.5-0.8,0.5-1.6,0.4-2.4c-0.1-1.4-0.1-2.9,1-4c0.4-0.4,0.6-0.8,0.4-1.2
		c-1-2,0.2-2.5,1.8-2.9c1.6-0.4,4.2-4,4.2-5.6c0-0.2,0.1-0.3-0.2-0.6c-1.3-1.2-1.3-1.2,0.3-2.1c5.2-3,10.4-4.3,15.7-0.5
		c0.3,0.2,0.5,0.1,0.8,0c3.2-1.2,4.8-0.5,6.6,2.4c1.6,2.5,2,5.4,2.5,8.2c1.1,6.1-0.1,11.8-3.2,17.1c-0.3,0.5-0.4,1.2-1.2,1.1
		c-0.5-0.1-0.5,0-1.1-1.6c-0.8,0.8-1.5,1.7-2.3,2.4c-0.8,0.7-1.8,2.6-2.7-0.1c-0.2-0.7-0.9-0.2-1.4-0.1c-1.4,0.3-2.8,0.7-4.1-0.5
		c-0.3,1,0.5,1.2,1.1,1.7c1.8,1.3,3.8,2.2,5.4,3.9c0.6,0.6,1.3,1.4,0.9,2.2c-1.1,2.3,0.5,3.7,1.6,5.5c2.1-6.7,6.9-11.8,9.2-18.3
		c1.4-4,3.1-7.9,3.1-12.3c0-1.6,0.7-3.2,2.2-4c1.4-0.8,1.6-1.9,1.3-3.3c-0.8-4.3-1.5-8.6-2.4-12.8c-0.3-1.5,0-2.8,0.7-4.4
		c1.4,2.8,1.5,5.6,2.2,8.3c0.6,2.4,1,4.9,1.5,7.4c0.2,0.9,0.1,2.4,1.9,1.6c0.6-0.3,1,0.5,1,1c-0.3,1.9,1.1,2.7,2.3,3.7
		c1.5,1.3,2.2,3.1,3.3,4.5c2.4,3.1-0.2,4.3-1.4,6.1c-1.1,1.7-1.9,3.2-1,5.3c0.6,1.4,0,2.7-1.1,3.4c-1.1,0.7-2.1,0.3-3-0.8
		c-1.1-1.4-1.6,0-2,0.7c-1.5,2.7-2.5,5.5-3.4,8.4c-1.8,5.8-2.5,11.9-4.5,17.7c-1.9,5.2-4.4,7.1-9.8,6.1c-6.8-1.2-11.5,1.2-15.1,6.9
		c-2.1,3.4-4.6,6.6-6.9,9.9c-0.8,1.2-1.1,2.4-1,3.8c0.4,4,1,8,3,11.6c0.2,0.4,0.4,0.9,0.3,1.3c-0.9,3.6,1.1,6.4,2.6,9.3
		c1.6,3.1,2.7,6.2,2.9,9.7c0,1,0.3,1.9,0.9,2.8c0.2,0.3,0.3,0.5,0.5,0.8c2.5,3.2,4.4,6.6,3.5,10.8c-0.3,1.5,0.3,1.8,1.6,1.7
		c1.9-0.1,1.4,0.8,0.8,1.7c-0.8,1.4-2.4,1.4-3.7,2c-1.3,0.6-1.7,1.3-1.3,2.8c1.8,6.6,2,6.7,7.4,2.6c4.1-3.1,8.8-3.1,13.5-2.9
		c4.5,0.2,9,0.6,13.3-1.3c-0.5-0.9-1.9-1.4-1.2-2.6c0.6-1.1,1.9-0.7,2.8-0.5c1.4,0.3,2.3-0.1,3.3-1c5.3-4.4,9-2.7,13,4.5
		c0.4,0.7,0.5,1.5,0.6,2.4c0.3,2.9,1.2,5.3,3.5,7.4C1382.3,345.5,1381.9,354.7,1377.5,358.3z"/>
	<path class="st2" d="M717.3,138.3h-56.2h-21.1c5.6,2.6,9.5,8.2,9.5,14.7c0,8.9-7.2,16.2-16.2,16.2c-8.9,0-16.2-7.2-16.2-16.2
		c0-6.5,3.9-12.1,9.5-14.7h-50h-74.7v65.6c7,3.4,13,11.6,17.9,24.8l72.5,206.5c-7,18.7-21.4,27.5-43.1,26.6v63.8
		c18.4,3.7,34.6,5.5,48.6,5.5c16.5,0,31.2-2.1,44-6.4c12.2-5.5,23.4-14.3,33.5-26.4c10.1-12.1,18.8-31.1,26.2-57.1l60.1-204.2
		c5.2-18,11.2-29.4,17.9-34v-64.7H717.3z M700.1,324.1c0,0-24.9,16.7-30.2,25.5s-17,20.2-28.1,1.8c0,0,9.1,17.9,6.4,33.4
		c-2.6,15.5-4.1,23.7-3.5,29c0,0,7.9,4.1,3.2,11.7c0,0-7.3,0-8.8,7.3s-2.6,13.5-10.8,12.6c-8.2-0.9,2.9-26.4,2.9-26.4
		s0.3-42.2,1.2-46c0,0-16.4-36.3-19-58s3.2-13.5-3.5-33.1c0,0-3.2-33.7,2.9-51c0,0,2.1-8.8-2.1-14.7s-28.4-35.7-34.9-56.5
		c0,0-9.4-4.4-8.8-16.7c0,0,2.1-0.9,6.4,2.1l2.6-0.6c0,0,1.2-3.8,2.6-3.8c1.5,0,2.6,8.2,2.6,8.2s7-5,7.6-2.3s-5,5.3-3.8,10.5
		c1.2,5.3,22.3,39.6,34,45.7c0,0,10,4.7,12.6,12c0,0,3.8-2.6-0.9-7c0,0-2.9-6.2,0.3-7c0,0,2.9-3.5,1.5-7.3c0,0,2.1-1.2,5.9-2.3
		c0,0,12.6-14.9,24,0.3c0,0,1.2,6.4,0,10.5c0,0,17,3.5,7,15.8v3.8l22,0.6c0,0,1.2-24.6-6.7-29.6c0,0-9.1,0.3-9.1-2.9
		c0,0,0.6-2.6,4.1-1.8c0,0-4.1-7.3-7-10c0,0-0.6-5.9,6.2-2.6c0,0,4.2-3.5,12.7,8.8c0,0,13.4,19,13.4,44.2c0,0-1.2,6.7-13.5,9.1
		l-29-1.2c0,0-20.2,21.1-22,27c-1.8,5.9-2.1,15.5,9.7,22.3s0.9,20.8,1.2,24.9c0.3,4.1,7.3,10.8,6.2,24c0,0,24.6-15.5,35.2-19
		c0,0-3.2-7.6,2.3-7.9c0,0,9.1,2.6,14.1,0.3c0,0,12.6-5.9,13.8,4.4C722.9,312.1,704.5,318.3,700.1,324.1z"/>
	<g class="st0">
		<path class="st3" d="M1011,244.7c-9.2-3.3-15.7-9.3-23.2-13.5c-2.5-1.4-3.7-0.8-4.4,1.9c-1,3.6-2.1,7.2-2.4,11
			c-0.3,3.6-2.2,5.3-6.3,5.4c-10.2,0.4-20.3,0-30.5-1.7c-3.4-0.6-5-5.5-9.4-3.2c-0.4,0.2-0.5-2.5-0.2-3.9c0.5-2.7,1-5.8,3.5-6.9
			c2.9-1.3,5.6,0.9,7.7,2.7c6,4.8,13.9,5.1,20.2,0.3c1.1-0.8,1.1-1.6,0.9-2.7c-0.9-4.3-0.6-8.6,1.1-12.7c0.3-0.8,0.3-2-0.1-2.6
			c-3-4.7-1.9-9.3,0.5-13.7c0.8-1.6,0.4-1.9-0.9-2.8c-8.2-5.1-9.1-14.3-11-22.4c-1-4.2,4.5-7.3,7.9-9.9c9-6.6,20.9-2.3,23.8,8.4
			c0.8,3,0.9,6.1,0.5,9.1c-0.7,4.7,1.7,6.7,5.9,6.7c19.5,0,32.8,11.5,43.9,25.3c6.6,8.2,11.3,18.3,13.6,29c0.8,3.7,0.4,7.5-2,10.3
			c-4.1,4.9-7.4,10.6-12.9,14.4c-6.2,4.3-6.8,6.5-4.3,13.7c2.7,7.7,2.6,15.5,0.4,23.2c-1.7,5.7-1,11,1.7,16.1c1.1,2,1.3,4.1,1.5,6.2
			c0.5,3.8-2.1,6.3-5.8,5.3c-4.4-1.2-8.8-1.8-13.3-1.6c-3.7,0.2-5.9-2.6-8.2-4.7c-1.9-1.8-0.3-3.2,1.7-3.8c9.3-3,9.3-3,10.1-12
			c0.2-2.5,0.1-5-0.7-7.5c-2.7-8.2-5.3-16.4-8-24.5c-0.3-1-0.1-3.1-2.2-2.1c-5.2,2.5-11.5,3-15.7,7.7c-0.6,0.6-1.6,0.9-1.1,2.1
			c4.9,10,3.1,20.9,4.2,31.5c0.5,5.2,2.8,10.2,3.5,15.5c0.7,5.1,0,7.3-5.2,7.6c-6.2,0.5-12,2.1-17.5,5.1c-3.6,1.9-7,0.9-10.5,0.1
			c-1.4-0.3-3.4-0.5-3.4-2.8c0-1.8-0.2-3.5,1.7-4.8c3.1-2.2,6-4.6,8.8-7.1c2.9-2.5,4.6-5.5,3.9-9.5c-0.2-0.9-0.4-2.1,0-2.6
			c6.1-6.9,0.5-12.8-1.6-19c-1.9-5.6-4.1-11-5.8-16.7c-0.9-2.8,0.4-5.5,2.2-7.5c8.1-9.3,15.7-19,25.1-27
			C1002.4,250.8,1006.4,248.1,1011,244.7z"/>
		<path class="st3" d="M916.9,251c-3.3,7.1-7,7.6-17,2.8c-1.1,1.3-0.4,2.8-0.1,4.1c3.8,14.9-0.5,29.2-4,43.4
			c-1.6,6.4-1.4,12.8-2.4,19.1c-0.6,4,2.6,6.6,5.9,8.8c2.8,1.9,8.6,2.3,6.9,7.3c-1.6,4.6-6.5,2.3-9.9,2c-4.6-0.4-9.3-0.2-13.9-1.6
			c-3.4-1.1-4.6-3-3.9-6.5c1.5-6.8,2.6-13.7,4.4-20.4c1.1-4.1-0.3-7.9-0.6-11.8c-0.3-4.2-0.9-7.9,1.4-12.2c2.3-4.3,1.9-9.5-1.6-13.8
			c-5-6.2-9.3-12.7-11-20.9c-2.2,11.9-8.1,22.4-15,31.4c-5.7,7.3-7.4,16.6-14.2,22.8c-2.4,2.2-2.8,5.6-3.1,8.3
			c-0.6,5.9-4.2,11.3-3,17.5c0.4,1.9-0.2,3.9-2.2,4.5c-4.2,1.2-8.5,1.7-12.8,1.1c-3.7-0.5-2.7-3.7-1.7-5.5c4-7.2,5.4-15.3,8.1-23
			c2-5.8,1.9-11.9,4-17.7c2.6-7.3,7.7-12.8,11.3-19.3c1.4-2.5,2.2-4.8,2.1-7.5c-1-16.4,3.3-31.5,12.3-44.9
			c6.1-9.1,14.1-17.1,23.6-22.6c7.4-4.3,16-4.7,24.3-0.8c5.9,2.7,7.5,1.8,9.5-4.2c3.9-12,13.7-15.7,23.9-8.6
			c3.6,2.5,5.2,7.1,7.1,11.1c1.5,3.3-1.5,5.3-2.9,7.4c-4,5.7-7.6,12.1-13.4,15.8c-6.5,4.2-5.7,9.8-6.4,16
			c-1.2,9.9,3.7,14.9,11.6,18.3c3.9,1.7,4.2,6.5,7.7,8.6c0.8,0.5,0.1,2-0.9,2.6c-4.7,2.9-12.8,1.4-16-3.2
			C922.8,256.4,919.6,254.4,916.9,251z M908.1,241.1c0.8-2.8-0.5-4.5-0.7-6.5c-0.1-1.7-1.3-2.4-2.6-1.3c-2.7,2.2-6,2.4-10.1,2.5
			C898.5,241.4,904.1,238.4,908.1,241.1z"/>
		<path class="st4" d="M908.1,241.1c-4-2.7-9.7,0.3-13.4-5.3c4.1,0,7.4-0.2,10.1-2.5c1.3-1.1,2.4-0.3,2.6,1.3
			C907.6,236.6,909,238.3,908.1,241.1z"/>
	</g>
	<g>
		<path class="st1" d="M1112.2,346.6c-3.1-4-7.3-11-12.8-21.1L1042,211.7l50.5-81.2c6.7-10.4,10.9-16.4,12.4-18.1
			c1.5-1.7,6.6-4.4,15.1-8V34.6H986.4v58.3c0,11.6-2.5,22.8-7.6,33.5c-5,10.7-12.5,23.3-22.5,37.9c-6.6,9.7-11.6,17.1-15.1,22.4
			c0.1,0.2,0.2,0.4,0.2,0.6c0.7,2.7,2.5,4.6,4,6.7c0.3,0.4,0.3,0.9,0.6,1.2c2.6,3.6-0.6,6-2.1,8.4c-1.4,2.3-2.4,5.2-5.3,6.3
			c-0.3,0.1-0.5,0.4-0.6,0.7c-2,5.2-6.8,8.1-10.1,12.3c-0.7,0.9-1.8,0.9-2.9,0.8c-0.8,0-1.4-0.1-1.4,1c0.2,3.7-1.4,7.3-0.6,11.2
			c0.5,2.2,0,4.5-0.7,6.7c-0.6,2-0.2,3.7,1.6,5.3c3,2.6,5.4,6,8.7,8.3c1.2,0.8,2.6,0.9,3.7,1.8c0.3,0.2,0.5,0.4,0.8,0.6v-1.9h0.9
			c1,2,2.4,4.8,4.1,8.3c0.2,0.1,0.5,0.3,0.7,0.4c0.4,0.3,1,0.4,0.9,1c0,0.3-0.2,0.6-0.5,0.7c0,0,0,0.1,0,0.1
			c2.3,4.6,5.7,11.2,10.1,20c4.4,8.7,10,19.8,16.7,33.3c4.4,8,7.8,14.8,10.1,20.5c1.4-2.3,1.9-4.8,1.2-7.7c-0.4-1.6,0.3-2.8,1.7-3.7
			c1.5-0.9,1.8-2.1,1.3-3.9c-1.1-3.8-1.3-8-3.2-11.6c-2.6-4.9-4.6-10-5.5-15.6c-0.3-1.7-1.9-2.9-2.1-4.8c-0.3-3.8,2-6.4,3.9-9.1
			c1.2-1.6,2.7-3,3.6-4.9c0.3-0.6,0.9-1.3,1.6-1.4c2.9-0.7,4.2-3.1,5.9-5.1c3.4-4,6.3-8.5,10.4-11.8c3.9-3.1,7.4-6.9,12.1-8.9
			c1.4-0.6,2.8-2,2.9-3.4c0.1-1.5-2.1-1.7-3.2-2.5c-1.1-0.8-2.6-1-3.9-1.4c-3-1.1-5.7-2.2-7.8-5c-2.5-3.3-7-4.4-10.8-6.2
			c-1-0.5-1.4,0.2-1.7,1c-1.3,4-2.8,8-2.9,12.4c-0.2,5.1-2.3,6.9-7.4,6.4c-3.3-0.4-6.5,0.2-9.7,0.8c-3.2,0.5-6.7,0.8-10.1-0.5
			c-2.8-1-5.8-1.6-8.7-2.4c-0.2-0.1-0.5-0.1-0.7,0c-2.9,1.6-4.6-0.9-6.7-1.9c-1.3-0.6-2.1-2.2-4.1-1c-1,0.6-1.7-1.2-1.3-2.1
			c0.9-2.1,0.9-4.5,2.2-6.6c1.5-2.4,2.6-3.1,5.2-2c2.3,0.9,4.5,1.7,6.1,4c1.5,2.2,4.2,2.1,6.7,2.5c1.9,0.3,3.9-0.7,5.8,0.3
			c0.1,0.1,0.5-0.1,0.6-0.3c1.6-2.3,4.2-2.8,6.6-3.6c1.2-0.4,1.6-1.1,1.2-2.4c-1.2-4.5-1.3-8.9,0.8-13.3c0.6-1.4,0.8-2.9,0-4.2
			c-3.1-4.8-1.6-9.3,0.9-13.6c0.8-1.4,1.3-2.2-1-2.7c-1.7-0.3-2.7-2-3.8-3.2c-0.9-1.1-1.5-2.5-3-3c-0.7-0.3-0.6-1-0.5-1.7
			c0.1-1,0.5-2.5-0.1-3.1c-2.4-2.9-2.3-6.7-4-9.7c-1.1-2-0.6-4.2,1.1-5.9c3.1-3.1,5.8-6.6,9.8-8.7c1.1-0.6,2.5-0.4,3.4-1.3
			c2.1,0,4.2,0,6.3,0c1.7,1.3,3.8,1.8,5.6,2.4c3,1,4.2,3.6,5,5.8c1.6,4.3,2.5,8.8,1.8,13.5c-0.2,1.4,0.5,2.8,0.2,4.3
			c-0.1,0.7,0.5,1.1,1.2,1.3c4.2,1,8.5,1.7,12.9,1.2c1.9-0.2,3.8,0.2,5.6,1.2c8,4.8,15.9,9.6,23.5,15c3.2,2.3,5.7,5.3,7.8,8.6
			c6.4,10,12.3,20.2,14.8,32c0.9,4.2-0.4,8-3.1,11.3c-2.3,2.7-4.6,5.4-6.7,8.3c-1.6,2.2-4,3.6-6,5.3c-0.6,0.5-1.1,1-1.7,1.3
			c-4.2,2.2-3.7,6.1-3.6,9.8c0.1,1.4,0.6,2.8,1.1,4.2c2.9,7.3,2.3,14.7,0.4,22c-1.5,5.6-1.7,11.2,0.7,16.3c1.3,2.9,2.3,5.8,2.7,8.8
			c0.3,2.2-2.6,5.3-4.7,4.6c-5.5-1.7-11.2-1.6-16.9-2.3c-3-0.3-4.9-2.9-7-4.7c-1.3-1.1-0.1-3.2,2.1-3.5c2.2-0.3,4.3-0.6,6.4-1.2
			c4.4-1.4,4.5-1.9,4-6.8c-0.2-1.5-0.3-2.8,0-4.3c0.8-4.2-0.7-8.1-1.6-12.2c-0.8-3.5-2.6-6.4-4.2-9.4c-0.2-0.4-0.5-0.9-0.4-1.3
			c0.9-3.8-0.4-7-2.4-10c-0.8-1.1-0.6-2.4-0.5-3.9c-5,2-9.9,3.6-14.6,5.6c-2,0.8-3.5,3.3-5.6,4.6c-0.6,0.4,0,0.7,0.3,1.1
			c2.1,2.5,3.4,5.2,2.4,8.6c-0.1,0.2,0,0.5,0.1,0.7c3.1,5.1,0.6,10.8,1.9,16.1c0.2,0.9,0.4,2.2-0.8,3c-0.3,0.2-0.3,1.3-0.1,1.9
			c1.2,3.7,2.5,7.4,3.7,11.1c0.1,0.2,0.4,0.5,0.3,0.6c-1,3.6,1,6.7,1.3,10.1c0.1,1.3-0.3,2-1.5,2.6c-2.2,1.2-4.4,2.1-7,2.1
			c-4,0.1-7.8,1.1-11.3,2.9c0.9,6.1,1.3,13.6,1.3,22.6v48.2h140.9V358C1120.3,354.4,1115.2,350.6,1112.2,346.6z"/>
		<path class="st1" d="M937.3,315.8v-47.6c-1.3,0.3-2.7,0.7-4,0.8c-1.9,0.1-3.2-0.5-4.7-1.8c-3.6-3.1-6.5-6.8-9.9-10
			c-0.5-0.4-0.9-1.2-1.6-0.9c-0.8,0.4-1.4,1.3-1.6,2.3c-0.4,1.9-2.8,3.4-4.7,3.3c-4.4-0.3-8.6-1.1-12.2-4.8c0.3,4.9,1.1,9,1.9,13.1
			c0.9,4.1,0.4,8-0.3,12c-0.3,1.9-0.1,3.8-0.6,5.7c-2.3,8.9-2.6,18.2-6.2,26.8c-0.5,1.2,0.3,2.2,0.3,3.2c0.2,3.7-1.1,7.1-1.3,10.7
			c0,0.6-0.3,1.1,0.1,1.6c1.9,2.4,2.9,5.6,6.2,6.8c2.3,0.9,4.2,2.7,6.5,3.7c1.8,0.9,1.1,2.9,1.3,4.4c0.2,1.3-1.2,1.3-2,1.7
			c-0.5,0.2-1.1,0.4-1.6,0.4c-6.9-0.3-13.9-0.2-20.7-1.9c-5.1-1.2-5.4-2.4-4.7-7.6c0.7-5,3.4-9.5,2.6-14.7c-0.2-1.1,0.6-2.2,1.1-3
			c1.8-3.6,1-7.1,0.6-10.8c-0.7-5.4-1.8-10.8,1.2-16.2c3.3-6,1-11.6-3-16.6c-4.7-5.9-8.7-12.1-9.6-19.9c-0.1-0.5-0.4-0.9-0.9-2
			c-1.1,10.1-5.7,18.2-10.1,26.3c-1.8,3.3-3.8,6.6-5.7,9.9c-0.5,0.8-1.2,1.7-2,2.1c-3.6,1.6-4.4,4.7-5.2,8.1
			c-1.1,4.3-3.9,7.6-6.5,11c-1.7,2.1-3.6,4.2-3.1,7.3c0.1,0.4,0,0.9-0.2,1.1c-2.6,2.2-1.6,5.2-1.7,8c0,1.6-0.4,2.9-1.4,4.2
			c-1.3,1.7-2,3.6-1.1,5.9c1.3,3.5,0.2,5.5-3.3,6.3c-3.5,0.8-7.2,0.6-10.8,1c-1.1,0.1-2.2-0.5-3.3-0.8c0-1.5,0-2.9,0-4.4
			c1.1-2.7,2.5-5.2,4-7.7c0.9-1.6,1.5-3.3,1.5-5.3c0-0.6,0-1.4,0.3-1.9c2.5-3.5,2-8,4.2-11.7c1.1-1.9,0.2-4.7,0.7-7.1
			c0.9-4.3,1.7-8.6,4.4-12.3c0.1-0.1,0.3-0.3,0.3-0.4c-0.3-5.4,5-7.7,6.7-12c1.2-3.1,3.9-5.4,5-8.6c0.3-1,0.3-2.1,0.2-3.1
			c-0.7-8.4,0.8-16.6,2.1-24.8c0.5-2.9,1.7-5.5,3-8.1c1.8-3.5,3.5-7,5-10.6c1.5-3.5,3.9-7,6.8-9.6c4.7-4.2,8.9-9,13.6-13.2
			c4.5-4.1,9.6-6.6,15.7-7.6c6.4-1.1,12.1,0,17.8,2.8c4.3,2.1,7.8-0.6,8.6-5.3c0.7-4.1,3.2-7.5,6.7-10.1c5.2-3.8,10.2-2.7,15.3,0
			c0.2,0.1,0.5,0.2,0.7,0.3v-37.6c0-14.4,0.6-23.9,1.8-28.7c1.2-4.7,5-9.2,11.5-13.5V34.6H801.1v69.7c8.9,5.8,13.3,18.1,13.3,36.7
			v14.2v170.2c0,11.6-0.7,19-2.1,22c-1.4,3.1-5.1,6.6-11.2,10.6v69.7h149.6V358C941.8,354.4,937.3,340.3,937.3,315.8z"/>
	</g>
	<path class="st1" d="M1713.7,306.7v-71.6c0-34.3-8.1-59.9-24.3-77.1c-16.2-17.1-50.8-25.5-103.7-25.2c-44.7,0-76.9,6.4-96.6,19.3
		c-19.7,12.8-30.7,36.7-32.8,71.6v109.2c0,17.4,2.2,32.4,6.7,45c4.4,12.5,11.6,22.9,21.6,31.2c9.9,8.3,23.3,14.6,40.1,19
		c16.8,4.4,37.2,6.8,61,7.1c24.2,0,49-4,74.6-11.9c25.5-8,43.4-16.8,53.5-26.6v-73h-108.3v11c0,9.8-1.2,17.4-3.7,22.9
		c-2.5,5.5-7.8,8.3-16.1,8.3c-8.6,0-14.2-3.1-16.7-9.2c-2.6-6.1-3.9-13.8-3.9-22.9v-27.1H1713.7z M1599.3,167.4
		c6.6,0.9,12.9,2.8,18.8,6.1c13.7,7.6,22.6,19,26.7,34c0.9,3.2,1.4,6.4,1.6,9.7c0,0.7,0.1,1.4,0.2,2.1c0.1,0.5-0.1,0.5-0.6,0.5
		c-5-0.8-9.8-2.2-14.5-4.3c-7.4-3.3-13.9-8-19.6-13.7c-7.4-7.4-12.9-15.9-16.2-25.8c-1-2.9-1.6-5.9-2-9
		C1595.7,167,1597.5,167.2,1599.3,167.4z M1537.9,215.7c0.7-5.6,2-11,4.3-16.1c3.3-7.4,7.9-13.8,14-19.1c6.4-5.6,13.7-9.4,21.9-11.7
		c2.8-0.8,5.6-1.2,8.5-1.6c0.5-0.1,0.5,0.2,0.6,0.6c0.6,4,1.5,7.9,2.8,11.8c2.7,7.6,6.6,14.5,11.7,20.8c6,7.5,13.2,13.7,21.6,18.4
		c6.4,3.6,13.1,6.2,20.3,7.4c0.3,0,0.6,0.1,0.9,0.2c2.2,0.3,2.1,0.3,1.8,2.4c-0.6,4.2-1.6,8.3-3.1,12.3c-3.9,10.1-10.2,18.3-19,24.7
		c-6.4,4.6-13.4,7.7-21.1,9.2c-0.4,0.1-0.9,0.2-1.3,0.2c-1.3,0.2-2.6,0.4-4,0.6c-0.4,0.1-0.4-0.1-0.4-0.3c0-0.1,0-0.1,0-0.2
		c-0.3-2-0.7-4-1.1-6c-1.7-7.1-4.6-13.7-8.5-19.8c-7.3-11.4-17-20.4-29.1-26.6c-5.8-3-12-5.1-18.5-6.1c-0.5-0.1-0.9-0.2-1.4-0.2
		C1537.9,216.4,1537.8,216.2,1537.9,215.7z M1554.5,260.9c-8.1-7.7-13.3-17-15.7-27.9c-0.7-3-1-6.1-1.2-9.2c0-0.6,0.1-0.7,0.7-0.6
		c7.7,1.2,14.7,4,21.3,8c5.9,3.6,11.1,8,15.6,13.2c5.9,6.7,10.4,14.2,13.2,22.6c0.9,2.8,1.6,5.6,1.9,8.5c0.1,1-0.7,0.2-0.9,0.5
		C1576,275.1,1564.3,270.2,1554.5,260.9z"/>
</g>
<g id="font_Name_:_Aardvark">
	<g>
		<path class="st2" d="M197,273.8c0.7,0,1.3-0.8,1.2-1.6c-0.1-0.9-1.1-0.8-1.6-1.3c-0.7,0-0.9,0.5-0.9,1
			C195.8,272.9,196.1,273.8,197,273.8z"/>
		<path class="st2" d="M195.2,280.2c-1-0.7-2.1,0-3,0.7c-0.2-0.2-0.4-0.4-0.5-0.7c-2.8-0.6-5.6-1.2-9.2-2c3.9,4,7.7,5.8,12.6,4.6
			C194.7,282,196.2,281,195.2,280.2z"/>
		<path class="st2" d="M193.4,276.9c0.2,0.2,0.5,0.4,0.7,0.7c0,0.5-0.7,1.3,0.5,1.4c0.6,0.1,1.1-0.1,1.2-0.7
			c0.1-0.8,0.3-1.6-0.6-2.2c-2.4-1.5-4.4-0.7-5.7,2.3C191.2,279.2,192.7,278.9,193.4,276.9z"/>
		<path class="st2" d="M217.2,243.1c-6,0.9-12.1,2.1-17.9-1.3c-1.6-1-3.7-1-5.6-1c-0.8,0-1.7-0.1-2.2,0.9c-0.5,1.1,0.5,1.5,1.1,2
			c3.5,2.8,6.1,6.2,6.4,10.9c0.1,0.9,0.6,1.5,1.1,2.2c1.3,1.8,4.8,3,3.7,5.3c-1,2.2-4.4,1.2-6.8,1.3c-2.9,0.1-2.9,0-1.6,2.5
			c0.1,0.2,0.1,0.6,0,0.8c-0.3,2.1-0.3,2.4,1.2,2.6c1.7,0.3,3.4,0.4,3.2-2.4c1.3,1.5,1.4,1.6,0.8,5c-0.8,4.2-1.5,8.4-5.4,11
			c-0.3,0.8-0.2,1.3,1,1.2c2.4-0.1,4.9-0.2,7.3,0.2c2,0.4,2.9-0.3,3.9-1.8c3.3-4.8,6.5-9.7,10-14.4c2.7-3.5,3-7.7,4.3-11.6
			c1-3-0.9-6.1,0.2-9.2C222.6,244.7,220.2,242.7,217.2,243.1z"/>
	</g>
	<path class="st2" d="M474.6,350.5c-1.7-4.1-2.8-10.9-3.4-20.4c0.6-1.8,0.9-4.3,0.9-7.3V221.8c0-23.2-4.8-43.5-14.5-60.8
		c-9.6-17.3-31.1-27-64.5-29.1c-13.2-0.9-27.3,1.2-42.4,6.4c-15.1,5.2-29,12.4-41.5,21.6c-19.3-19.3-41.5-28.3-66.5-27.1
		c-21.4,0-45.9,7.8-73.4,23.4v-17.9H52.7v65.6c9.2,5.2,13.8,16.2,13.8,33v9.6v79.8v5.5c0,15.9-4.6,26.3-13.8,31.2v64.7h75.4h59.9
		h32.6h116.1h32.6h46.8h69.7v-64.7C480,358.8,476.3,354.6,474.6,350.5z M251.3,271.9c-2.7-2.6-5.8-4.8-8.1-7.7
		c-2.6-3.4-6.5-2.9-9.7-4.4c-0.9-0.4-2.5,0-3.3,1.7c-5.2,10.5-9,21.6-14,32.2c-0.9,2-2.1,3.2-4.3,3.8c-7.9,2-15.6,4.9-23.9,5.4
		c-2.1,0.1-1.6,1.8-1.7,2.8c-0.6,4.5-0.4,9.1-1.5,13.6c-0.3,1.1-0.4,2.3-0.9,3.4c-0.7,1.7-0.8,2.7,1.5,3.4c3,0.9,3.1,3.6,0.5,7
		c0.2,0.2,0.5,0.5,0.7,0.5c5-0.8,8.7,2,12.4,4.7c2.3,1.6,4.7,3.2,7.1,4.8c1.3,0.8,2.2,1.8,2.7,3.3c1.2,3.3,4.6,4.1,7.2,5.8
		c0.7,0.5,1.3-0.8,1.8-1.4c3.4-4.6,8.4-4,13.1-3.7c1.7,0.1,3,1.8,2.2,3.6c-2,4.6-2,9.4-1.7,14.1c0.2,3.2-1.4,5.6-2.6,8.2
		c-1.3,2.7-3.1,5.2-5.2,7.5c-8.4,9.2-14.5,20.1-21.2,30.6c-0.5,0.8-1,1.7-1.5,2.4c-2.1,3-0.7,6,3.1,6.4c0.9,0.1,1.7,0.1,2.4,0.6
		c1.6,1.1,3.3,2.5,3,4.6c-0.3,2.3-2.6,2.5-4.3,2.4c-5.9-0.2-11.7,0.6-17.6-1.5c-3.4-1.2-7.5-0.6-11.2-1.6c-4-1.1-4.8-2.8-2.8-6.4
		c1.2-2.1,1.4-4.7,2.9-6.7c1-1.3,0.5-4.2,3.5-3.1c0.1,0,0.6-0.4,0.6-0.6c2.6-8.1,9-14,12.6-21.6c0.4-1,0.8-1.8,0.9-2.9
		c0.4-2.7,1.5-5.3,3.5-7.3c2.2-2.2,2.1-2.3-0.8-3.6c-7.9-3.7-16.3-5.3-24.6-7.5c-2-0.6-3-0.1-4,1.7c-3.9,6.8-7.4,13.9-9.8,21.3
		c-1.7,5.2-4.3,9.9-8.4,13.7c-1.1,1-1.3,1.7-0.5,2.9c1.3,1.9,2.6,3.9,3.9,5.8c1.5,2.3,1.1,4.5-1.5,4.7c-6.9,0.5-13,4.9-20.2,3.9
		c-12.5-1.8-24.3,2.1-36.4,4c-2.4,0.4-4.6,1.8-7.3,0.6c-1.3-0.6-1.9,1-2.7,1.8c-3.3,3.8-7.1,3.5-9.7-0.7c-1.3-2-2.3-4-2.8-6.4
		c-0.7-3.7,0.1-5.5,3.5-7.2c1.2-0.6,1.9-1.2,2.2-2.7c0.6-3.6,4.3-6,7.9-6.1c4.5-0.1,9-0.3,12-4.6c0.4-0.5,0.9-1,1.6-0.7
		c0.8,0.3,0.9,0.9,0.8,1.6c-0.1,0.8-0.3,1.6-0.5,2.8c3.8-1.7,7.7-2.5,9.4-6.8c0.8-2,2.8-2.1,3.8,0c0.8,1.7,1.8,1.8,3.4,1.5
		c4-0.6,8-1.6,12.1-1.3c0.7,0.1,0.8-0.1,1-0.8c0.6-2.3,2.1-4.5,1.9-7c-0.4-5.6,1-11,2.8-16.2c1.6-4.5,1.7-8.9,1.3-13.8
		c-0.7-7.2-1.3-14.8,1.9-21.8c0.2-0.4,0.3-0.9,0.6-1.1c5.8-4.3,5.4-11.6,8.2-17.4c2-4.1,1.4-9.2,1.8-13.8
		c0.9-10.3,3.6-20.2,5.5-30.3c1.3-6.7,5.7-11.7,9.2-17.1c2.4-3.7,3.2-8.5,7.1-11.2c3-2.1,5.1-4.7,7-7.7c0.9-1.4,1.8-2.3,0.4-4.1
		c-1.9-2.5-0.8-5.1,1.1-7.2c1.9-2.1,4-3.9,7.2-3c5.9,1.7,11.9,3.2,17.5,5.6c1.1,0.5,1.9,0.4,3,0c2.4-1,4.9-1.9,7.5-2.7
		c3.5-1.1,5.4-0.3,7.5,2.8c1.2,1.9,2.9,3.6,4.8,4.3c2.2,0.9,2.1,1.9,1.5,3.6c-1.1,0.8-2.3,1.5-3.3,2.4c-0.4,0.4-1.3,1-0.5,1.8
		c0.9,0.9,1.7,0.1,2.1-0.5c0.7-0.9,1.2-2,1.7-3c6.8-1,11,1,14.1,6.4c1.5,2.5-0.2,4.9-0.1,7.3c0.1,2.1,0.7,3.3,2.2,4.5
		c15.3,12.3,30.7,24.2,47.1,35.1c0.8,0.5,1.6,1.1,2.3,1.7c1,0.7,1.7,1.5,1.2,2.9c-0.5,1.3-1.3,2.1-2.7,2.3c-3.5,0.3-6.7-0.7-9.9-2.1
		C270.6,288.9,260.6,281,251.3,271.9z M370.1,333.9c5.3,5.2,7.8,12.1,11.5,18.3c1.1,1.9,0.5,4.2,0,6.4c-1.1,4.6-3.7,8.9-3.9,13.7
		c-0.3,8.4-1.7,16.5-3.3,24.7c-0.6,3.1-2.2,6.4,0.1,9.1c2.6,3,4.2,7.1,8.6,8.4c0.7-0.5,0.5-1.6,0.7-2.4c1.2-5.7,4.9-9.2,10.5-9.9
		c6.4-0.8,10.8,1.6,13.4,7.2c2.4,5.2,1.4,11.2-2.5,14.9c-4.1,3.8-10.2,4.7-15,1.9c-2.2-1.3-4.1-3.1-6.8-1.1c-2.3-3-6.7,0.7-9.2-3.3
		c-1.3-2.1-4.5-3-7.5-1.7c-2.9,1.3-7.9-3.1-7.6-6.5c0.2-2.1,0.9-4.1,2.2-5.7c1.6-2.2,2-4.6,1.9-7.3c-0.1-8,0.4-16-0.5-23.9
		c-0.6-5.4,1.3-10.4,3.2-15.4c0.9-2.3,0.4-4-1.6-5.4c-1.4-0.9-2.7-0.9-3.1,1c-0.9,4.4-3.3,8.4-4,12.6c-0.9,5.2-3.6,7.8-8.4,7.4
		c-6.2-0.4-11.5,2.2-17.2,3.4c-4.3,0.9-8.6,1.4-12.8,2.4c-1.1,0.3-5.9,0-1.8,3.6c0.8,0.7-0.2,1.1-0.8,1.6c-3.7,2.6-6.5,5.8-6.1,10.8
		c0.1,0.9-0.2,1.9-0.4,2.8c-0.7,2.1-2.3,2.6-4.1,1.3c-3.4-2.3-3.1-6.2-3.9-9.6c-0.4-1.8,0.3-3.4,1.7-4.9c1.9-2.1,1.2-5-0.1-7.3
		c-0.8-1.3-1.8-2-1.8-4.1c0-2,1-3,1.8-4.1c2-2.9,5-2,7.6-0.9c2.5,1.1,4.7,0.9,7.1-0.2c4-1.7,7.8-3.7,11.4-6.2
		c3.2-2.2,6.7-3.8,10.7-3.4c1.8,0.2,2.1-0.6,2.5-2.2c1.4-7.2-0.8-14.2-1.4-21.3c-0.1-1.1-0.9-1.8-1.6-2.6c-3-3.6-6.6-6.6-9-10.6
		c-0.2-0.3-0.5-0.7-0.8-0.9c-3.9-2.2-4.9-3.9-3.8-8.2c0.5-2.2,0.6-4.3,0.6-6.4c-0.1-4,0.1-7.9,1.7-11.6c1.3-3.2,1.7-6.6,1.6-10
		c-0.1-5,0-9.9,0-14.9c-1.6,0.5-3.5,0.3-5.3,0.3c-5.1,0.2-9.6,2.9-14.5,4c-1.6,0.4-2.2,2.1-2.6,3.7c-1.9,8.2-5,16.2-5.5,24.8
		c-0.1,1-0.3,2-0.1,3.1c0.8,3.7-1.3,6.5-3.6,8.8c-1.2,1.2-3.5,0.2-4.8-1.2c-4-4.5-4-6.7,0.2-11.3c1.2-1.3,1.6-2.8,1.7-4.5
		c0.6-8.7,1.5-17.3,4.4-25.6c0.6-1.8,1.5-3.1,3.1-4.3c6.9-5.3,14.9-8.8,21.8-14.1c3.1-2.4,7.2-3.9,11.4-4.6c4.1-0.6,7.5-2.8,11-4.7
		c1.8-1,1.4-2.9,0.7-4.3c-1.2-2.5-3.3-4.6-1.5-8c0.7-1.2-1.2-3.3-0.9-5.4c0.7-6.9,6-10.8,12.9-9.1c5.9,1.5,8.8,6.7,8.8,13
		c0,5.3-2.9,9.5-3.6,14.4c-0.1,0.9-0.6,1.6,0.9,2c1.4,0.3,2.6,1.4,4,1.6c4.5,0.5,6.3,3.6,8.1,7.1c2.2,4.4,2.9,9.3,5.4,13.5
		c1.3,2.2,3.3,4.1,1.9,7.1c-0.2,0.4,0.2,1.3,0.6,1.6c4.4,4.4,8,9.7,13.4,12.8c3,1.7,6.7,2.2,9.6,4.3c2,1.4,2,3.6,1.7,5.5
		c-0.3,1.7-1.8,3.2-3.9,2.9c-1.7-0.3-3.8-0.7-4.8-1.9c-6-7.5-15.6-9.3-23-14.5c-1.6-1.1-3-2.1-3.5-4.1c-0.1-0.6-0.6-1.5-0.9-1.5
		c-3.6,0.2-3.6-2.7-4.6-4.9c-0.6,7.2-1.8,14.2-2.4,21.3c-0.6,6.5,0,13.1-0.8,19.5C364.4,326.3,366.5,330.3,370.1,333.9z"/>
</g>
</svg>
